<?xml version="1.0" encoding="UTF-8"?>
<svg width="134px" height="19px" viewBox="0 0 134 19" version="1.1" xmlns="http://www.w3.org/2000/svg" xmlns:xlink="http://www.w3.org/1999/xlink">
    <!-- Generator: Sketch 57.1 (83088) - https://sketch.com -->
    <title>bozellstarter</title>
    <desc>Created with Sketch.</desc>
    <g id="Page-1" stroke="none" stroke-width="1" fill="none" fill-rule="evenodd">
        <g id="bozellstarter" transform="translate(0.608000, 0.624000)" fill-rule="nonzero">
            <path d="M3.528,17.376 L-2.84217094e-14,17.376 L-2.84217094e-14,0 L3.576,0 L3.576,6.576 C4.08,5.832 5.4,5.16 7.032,5.16 C10.488,5.16 12.576,7.8 12.576,11.376 C12.576,15.024 10.224,17.64 6.888,17.64 C5.304,17.64 4.08,16.944 3.528,16.032 L3.528,17.376 Z M8.928,11.4 C8.928,9.384 7.656,8.448 6.24,8.448 C4.824,8.448 3.528,9.384 3.528,11.4 C3.528,13.368 4.824,14.376 6.24,14.376 C7.656,14.376 8.928,13.392 8.928,11.4 Z M19.68625,14.376 C21.07825,14.376 22.37425,13.416 22.37425,11.4 C22.37425,9.384 21.07825,8.448 19.68625,8.448 C18.31825,8.448 16.99825,9.384 16.99825,11.4 C16.99825,13.392 18.31825,14.376 19.68625,14.376 Z M19.68625,5.088 C23.26225,5.088 26.02225,7.704 26.02225,11.4 C26.02225,15.096 23.26225,17.736 19.68625,17.736 C16.13425,17.736 13.35025,15.096 13.35025,11.4 C13.35025,7.704 16.13425,5.088 19.68625,5.088 Z M36.9005,17.376 L26.8925,17.376 L26.8925,14.16 L32.1485,8.568 L27.0365,8.568 L27.0365,5.448 L36.8045,5.448 L36.8045,8.448 L31.3085,14.232 L36.9005,14.232 L36.9005,17.376 Z M41.29875,9.984 L46.07475,9.984 C46.02675,9.072 45.40275,7.968 43.67475,7.968 C42.13875,7.968 41.37075,9.096 41.29875,9.984 Z M46.33875,13.08 L49.38675,13.944 C48.81075,16.008 46.91475,17.736 43.89075,17.736 C40.60275,17.736 37.67475,15.384 37.67475,11.376 C37.67475,7.536 40.53075,5.088 43.62675,5.088 C47.32275,5.088 49.60275,7.368 49.60275,11.208 C49.60275,11.712 49.55475,12.264 49.53075,12.336 L41.22675,12.336 C41.29875,13.68 42.52275,14.64 43.93875,14.64 C45.25875,14.64 46.00275,14.016 46.33875,13.08 Z M54.889,17.376 L51.241,17.376 L51.241,0 L54.889,0 L54.889,17.376 Z M61.03925,17.376 L57.39125,17.376 L57.39125,0 L61.03925,0 L61.03925,17.376 Z" id="bozell" fill="#0D1010"></path>
            <path d="M62.5575,13.992 L65.6535,13.44 C65.7015,14.256 66.2775,15.048 67.5255,15.048 C68.4615,15.048 68.9175,14.544 68.9175,14.016 C68.9175,13.584 68.6295,13.224 67.7415,13.032 L66.3735,12.72 C63.8295,12.168 62.8215,10.728 62.8215,9.048 C62.8215,6.864 64.7415,5.088 67.4055,5.088 C70.8615,5.088 72.0615,7.248 72.1815,8.64 L69.1575,9.192 C69.0615,8.4 68.5575,7.728 67.4535,7.728 C66.7575,7.728 66.1575,8.136 66.1575,8.76 C66.1575,9.264 66.5655,9.552 67.0935,9.648 L68.6775,9.96 C71.1495,10.464 72.3495,11.952 72.3495,13.704 C72.3495,15.744 70.7895,17.736 67.5975,17.736 C63.8535,17.736 62.6535,15.312 62.5575,13.992 Z M78.37975,1.968 L78.37975,5.448 L80.70775,5.448 L80.70775,8.64 L78.37975,8.64 L78.37975,13.104 C78.37975,14.088 78.90775,14.352 79.69975,14.352 C80.08375,14.352 80.44375,14.28 80.65975,14.232 L80.65975,17.256 C80.51575,17.328 79.91575,17.592 78.76375,17.592 C76.29175,17.592 74.77975,16.128 74.77975,13.752 L74.77975,8.64 L72.66775,8.64 L72.66775,5.448 L73.26775,5.448 C74.51575,5.448 75.11575,4.608 75.11575,3.504 L75.11575,1.968 L78.37975,1.968 Z M81.962,14.088 C81.962,11.976 83.522,10.776 85.49,10.488 L88.298,10.056 C88.946,9.96 89.162,9.648 89.162,9.24 C89.162,8.544 88.562,7.944 87.41,7.944 C86.138,7.944 85.442,8.808 85.37,9.696 L82.202,9.048 C82.346,7.344 83.93,5.088 87.434,5.088 C91.298,5.088 92.714,7.248 92.714,9.696 L92.714,15.528 C92.714,16.464 92.834,17.256 92.858,17.376 L89.57,17.376 C89.546,17.28 89.45,16.848 89.45,16.032 C88.826,17.04 87.674,17.712 86.09,17.712 C83.474,17.712 81.962,15.984 81.962,14.088 Z M86.978,15.072 C88.058,15.072 89.162,14.544 89.162,12.696 L89.162,12.168 L86.906,12.528 C86.138,12.648 85.562,13.008 85.562,13.848 C85.562,14.472 85.97,15.072 86.978,15.072 Z M102.65625,5.448 L102.65625,9.048 C102.24825,8.952 101.86425,8.928 101.50425,8.928 C100.04025,8.928 98.72025,9.792 98.72025,12.168 L98.72025,17.376 L95.07225,17.376 L95.07225,5.448 L98.60025,5.448 L98.60025,7.056 C99.22425,5.712 100.73625,5.328 101.69625,5.328 C102.05625,5.328 102.41625,5.376 102.65625,5.448 Z M108.9025,1.968 L108.9025,5.448 L111.2305,5.448 L111.2305,8.64 L108.9025,8.64 L108.9025,13.104 C108.9025,14.088 109.4305,14.352 110.2225,14.352 C110.6065,14.352 110.9665,14.28 111.1825,14.232 L111.1825,17.256 C111.0385,17.328 110.4385,17.592 109.2865,17.592 C106.8145,17.592 105.3025,16.128 105.3025,13.752 L105.3025,8.64 L103.1905,8.64 L103.1905,5.448 L103.7905,5.448 C105.0385,5.448 105.6385,4.608 105.6385,3.504 L105.6385,1.968 L108.9025,1.968 Z M115.72475,9.984 L120.50075,9.984 C120.45275,9.072 119.82875,7.968 118.10075,7.968 C116.56475,7.968 115.79675,9.096 115.72475,9.984 Z M120.76475,13.08 L123.81275,13.944 C123.23675,16.008 121.34075,17.736 118.31675,17.736 C115.02875,17.736 112.10075,15.384 112.10075,11.376 C112.10075,7.536 114.95675,5.088 118.05275,5.088 C121.74875,5.088 124.02875,7.368 124.02875,11.208 C124.02875,11.712 123.98075,12.264 123.95675,12.336 L115.65275,12.336 C115.72475,13.68 116.94875,14.64 118.36475,14.64 C119.68475,14.64 120.42875,14.016 120.76475,13.08 Z M133.251,5.448 L133.251,9.048 C132.843,8.952 132.459,8.928 132.099,8.928 C130.635,8.928 129.315,9.792 129.315,12.168 L129.315,17.376 L125.667,17.376 L125.667,5.448 L129.195,5.448 L129.195,7.056 C129.819,5.712 131.331,5.328 132.291,5.328 C132.651,5.328 133.011,5.376 133.251,5.448 Z" id="starter" fill="#818181"></path>
        </g>
    </g>
</svg>