<svg id="Layer_1" data-name="Layer 1" xmlns="http://www.w3.org/2000/svg" viewBox="0 0 165.3 164.8">
  <title>dd.inline</title>
  <g>
    <text transform="matrix(0.74, -0.68, 0.68, 0.74, 38.14, 39.93)" font-size="24" font-family="Bison-Bold, Bison" font-weight="700">D</text>
    <text transform="matrix(0.84, -0.54, 0.54, 0.84, 46.65, 32.36)" font-size="24" font-family="Bison-Bold, Bison" font-weight="700">e</text>
    <text transform="translate(55.4 26.9) rotate(-22.8)" font-size="24" font-family="Bison-Bold, Bison" font-weight="700">s</text>
    <text transform="translate(65.6 22.9) rotate(-14.6)" font-size="24" font-family="Bison-Bold, Bison" font-weight="700">i</text>
    <text transform="translate(71.8 21.3) rotate(-6.3)" font-size="24" font-family="Bison-Bold, Bison" font-weight="700">g</text>
    <text transform="matrix(1, 0.07, -0.07, 1, 82.91, 20.19)" font-size="24" font-family="Bison-Bold, Bison" font-weight="700">n</text>
    <text transform="translate(94.6 21.4) rotate(12.2)" font-size="24" font-family="Bison-Bold, Bison" font-weight="700"> </text>
    <text transform="translate(100.1 22.5) rotate(20.1)" font-size="24" font-family="Bison-Bold, Bison" font-weight="700">+</text>
    <text transform="translate(110.5 26.6) rotate(27.9)" font-size="24" font-family="Bison-Bold, Bison" font-weight="700"> </text>
    <text transform="matrix(0.81, 0.59, -0.59, 0.81, 115.45, 29.18)" font-size="24" font-family="Bison-Bold, Bison" font-weight="700">d</text>
    <text transform="translate(124.5 36) rotate(45.9)" font-size="24" font-family="Bison-Bold, Bison" font-weight="700">e</text>
    <text transform="translate(131.7 43.5) rotate(56)" font-size="24" font-family="Bison-Bold, Bison" font-weight="700">v</text>
    <text transform="translate(138 53.2) rotate(66.2)" font-size="24" font-family="Bison-Bold, Bison" font-weight="700">e</text>
    <text transform="translate(142 62.7) rotate(75.8)" font-size="24" font-family="Bison-Bold, Bison" font-weight="700">l</text>
    <text transform="translate(144.3 72.4) rotate(85.6)" font-size="24" font-family="Bison-Bold, Bison" font-weight="700">o</text>
    <text transform="matrix(-0.1, 0.99, -0.99, -0.1, 145.03, 83.54)" font-size="24" font-family="Bison-Bold, Bison" font-weight="700">p</text>
    <text transform="matrix(-0.75, 0.66, -0.66, -0.75, 128.03, 124.57)" font-size="24" font-family="Bison-Bold, Bison" font-weight="700">D</text>
    <text transform="matrix(-0.85, 0.52, -0.52, -0.85, 119.35, 131.93)" font-size="24" font-family="Bison-Bold, Bison" font-weight="700">e</text>
    <text transform="translate(110.5 137.2) rotate(158.6)" font-size="24" font-family="Bison-Bold, Bison" font-weight="700">s</text>
    <text transform="translate(100.2 140.9) rotate(166.8)" font-size="24" font-family="Bison-Bold, Bison" font-weight="700">i</text>
    <text transform="translate(93.9 142.4) rotate(175)" font-size="24" font-family="Bison-Bold, Bison" font-weight="700">g</text>
    <text transform="translate(82.8 143.2) rotate(-174.5)" font-size="24" font-family="Bison-Bold, Bison" font-weight="700">n</text>
    <text transform="matrix(-0.97, -0.23, 0.23, -0.97, 71.14, 141.76)" font-size="24" font-family="Bison-Bold, Bison" font-weight="700"> </text>
    <text transform="translate(65.7 140.5) rotate(-158.6)" font-size="24" font-family="Bison-Bold, Bison" font-weight="700">+</text>
    <text transform="matrix(-0.87, -0.49, 0.49, -0.87, 55.41, 136.13)" font-size="24" font-family="Bison-Bold, Bison" font-weight="700"> </text>
    <text transform="translate(50.5 133.5) rotate(-142.8)" font-size="24" font-family="Bison-Bold, Bison" font-weight="700">d</text>
    <text transform="translate(41.6 126.4) rotate(-132.7)" font-size="24" font-family="Bison-Bold, Bison" font-weight="700">e</text>
    <text transform="translate(34.6 118.8) rotate(-122.6)" font-size="24" font-family="Bison-Bold, Bison" font-weight="700">v</text>
    <text transform="matrix(-0.38, -0.92, 0.92, -0.38, 28.57, 108.91)" font-size="24" font-family="Bison-Bold, Bison" font-weight="700">e</text>
    <text transform="translate(24.8 99.3) rotate(-102.8)" font-size="24" font-family="Bison-Bold, Bison" font-weight="700">l</text>
    <text transform="translate(22.7 89.5) rotate(-93)" font-size="24" font-family="Bison-Bold, Bison" font-weight="700">o</text>
    <text transform="matrix(0.13, -0.99, 0.99, 0.13, 22.23, 78.4)" font-size="24" font-family="Bison-Bold, Bison" font-weight="700">p</text>
    <circle cx="144.9" cy="112.4" r="2"/>
    <circle cx="21.9" cy="50.4" r="2"/>
  </g>
</svg>
